<svg xmlns="http://www.w3.org/2000/svg" xmlns:xlink="http://www.w3.org/1999/xlink" width="300" zoomAndPan="magnify" viewBox="0 0 224.87999 36.000001" height="48" preserveAspectRatio="xMidYMid meet" version="1.0"><defs><g/><clipPath id="a4be73777e"><path d="M 2.980469 5 L 20 5 L 20 28 L 2.980469 28 Z M 2.980469 5 " clip-rule="nonzero"/></clipPath></defs><g clip-path="url(#a4be73777e)"><g fill="#000000" fill-opacity="1"><g transform="translate(-0.423001, 27.147795)"><g><path d="M 2.828125 0 L 2.828125 -21.8125 L 7.140625 -21.8125 L 7.140625 -12.90625 L 7.625 -12.90625 L 14.90625 -21.8125 L 19.328125 -21.8125 L 19.328125 -21.4375 L 11.296875 -11.515625 L 20.15625 -0.375 L 20.15625 0 L 15.28125 0 L 7.625 -9.421875 L 7.140625 -9.421875 L 7.140625 0 Z M 2.828125 0 "/></g></g></g></g><g fill="#000000" fill-opacity="1"><g transform="translate(19.738638, 27.147795)"><g><path d="M 6.421875 0.3125 C 5.359375 0.3125 4.4375 0.117188 3.65625 -0.265625 C 2.882812 -0.648438 2.289062 -1.21875 1.875 -1.96875 C 1.457031 -2.726562 1.25 -3.632812 1.25 -4.6875 C 1.25 -5.65625 1.457031 -6.472656 1.875 -7.140625 C 2.289062 -7.804688 2.9375 -8.347656 3.8125 -8.765625 C 4.695312 -9.191406 5.84375 -9.519531 7.25 -9.75 C 8.238281 -9.90625 8.988281 -10.078125 9.5 -10.265625 C 10.007812 -10.453125 10.351562 -10.664062 10.53125 -10.90625 C 10.707031 -11.144531 10.796875 -11.445312 10.796875 -11.8125 C 10.796875 -12.34375 10.613281 -12.75 10.25 -13.03125 C 9.882812 -13.3125 9.273438 -13.453125 8.421875 -13.453125 C 7.503906 -13.453125 6.628906 -13.242188 5.796875 -12.828125 C 4.972656 -12.421875 4.257812 -11.882812 3.65625 -11.21875 L 3.359375 -11.21875 L 1.625 -13.828125 C 2.457031 -14.753906 3.472656 -15.476562 4.671875 -16 C 5.878906 -16.519531 7.195312 -16.78125 8.625 -16.78125 C 10.800781 -16.78125 12.375 -16.316406 13.34375 -15.390625 C 14.320312 -14.460938 14.8125 -13.148438 14.8125 -11.453125 L 14.8125 -4.296875 C 14.8125 -3.554688 15.132812 -3.1875 15.78125 -3.1875 C 16.03125 -3.1875 16.273438 -3.234375 16.515625 -3.328125 L 16.734375 -3.265625 L 17.03125 -0.390625 C 16.800781 -0.242188 16.476562 -0.117188 16.0625 -0.015625 C 15.65625 0.078125 15.210938 0.125 14.734375 0.125 C 13.742188 0.125 12.972656 -0.0625 12.421875 -0.4375 C 11.867188 -0.820312 11.472656 -1.414062 11.234375 -2.21875 L 10.921875 -2.25 C 10.117188 -0.539062 8.617188 0.3125 6.421875 0.3125 Z M 7.734375 -2.78125 C 8.679688 -2.78125 9.441406 -3.097656 10.015625 -3.734375 C 10.585938 -4.378906 10.875 -5.273438 10.875 -6.421875 L 10.875 -8.09375 L 10.59375 -8.140625 C 10.34375 -7.941406 10.015625 -7.773438 9.609375 -7.640625 C 9.210938 -7.515625 8.632812 -7.382812 7.875 -7.25 C 6.976562 -7.101562 6.332031 -6.847656 5.9375 -6.484375 C 5.550781 -6.117188 5.359375 -5.601562 5.359375 -4.9375 C 5.359375 -4.226562 5.566406 -3.691406 5.984375 -3.328125 C 6.398438 -2.960938 6.984375 -2.78125 7.734375 -2.78125 Z M 7.734375 -2.78125 "/></g></g></g><g fill="#000000" fill-opacity="1"><g transform="translate(37.09466, 27.147795)"><g><path d="M 2.375 0 L 2.375 -16.453125 L 6.34375 -16.453125 L 6.34375 -14.046875 L 6.65625 -13.96875 C 7.675781 -15.84375 9.335938 -16.78125 11.640625 -16.78125 C 13.535156 -16.78125 14.925781 -16.257812 15.8125 -15.21875 C 16.707031 -14.1875 17.15625 -12.679688 17.15625 -10.703125 L 17.15625 0 L 13.03125 0 L 13.03125 -10.1875 C 13.03125 -11.28125 12.8125 -12.066406 12.375 -12.546875 C 11.9375 -13.035156 11.234375 -13.28125 10.265625 -13.28125 C 9.078125 -13.28125 8.148438 -12.894531 7.484375 -12.125 C 6.828125 -11.363281 6.5 -10.160156 6.5 -8.515625 L 6.5 0 Z M 2.375 0 "/></g></g></g><g fill="#000000" fill-opacity="1"><g transform="translate(56.375807, 27.147795)"><g><path d="M 8.828125 0 L 4.5 0 L 0.59375 -16.453125 L 4.4375 -16.453125 L 6.84375 -5.328125 L 7.15625 -5.328125 L 10.296875 -16.453125 L 13.875 -16.453125 L 17.109375 -5.328125 L 17.4375 -5.328125 L 19.765625 -16.453125 L 23.484375 -16.453125 L 19.625 0 L 15.28125 0 L 12.15625 -11.203125 L 11.84375 -11.203125 Z M 8.828125 0 "/></g></g></g><g fill="#000000" fill-opacity="1"><g transform="translate(80.447399, 27.147795)"><g><path d="M 6.421875 0.3125 C 5.359375 0.3125 4.4375 0.117188 3.65625 -0.265625 C 2.882812 -0.648438 2.289062 -1.21875 1.875 -1.96875 C 1.457031 -2.726562 1.25 -3.632812 1.25 -4.6875 C 1.25 -5.65625 1.457031 -6.472656 1.875 -7.140625 C 2.289062 -7.804688 2.9375 -8.347656 3.8125 -8.765625 C 4.695312 -9.191406 5.84375 -9.519531 7.25 -9.75 C 8.238281 -9.90625 8.988281 -10.078125 9.5 -10.265625 C 10.007812 -10.453125 10.351562 -10.664062 10.53125 -10.90625 C 10.707031 -11.144531 10.796875 -11.445312 10.796875 -11.8125 C 10.796875 -12.34375 10.613281 -12.75 10.25 -13.03125 C 9.882812 -13.3125 9.273438 -13.453125 8.421875 -13.453125 C 7.503906 -13.453125 6.628906 -13.242188 5.796875 -12.828125 C 4.972656 -12.421875 4.257812 -11.882812 3.65625 -11.21875 L 3.359375 -11.21875 L 1.625 -13.828125 C 2.457031 -14.753906 3.472656 -15.476562 4.671875 -16 C 5.878906 -16.519531 7.195312 -16.78125 8.625 -16.78125 C 10.800781 -16.78125 12.375 -16.316406 13.34375 -15.390625 C 14.320312 -14.460938 14.8125 -13.148438 14.8125 -11.453125 L 14.8125 -4.296875 C 14.8125 -3.554688 15.132812 -3.1875 15.78125 -3.1875 C 16.03125 -3.1875 16.273438 -3.234375 16.515625 -3.328125 L 16.734375 -3.265625 L 17.03125 -0.390625 C 16.800781 -0.242188 16.476562 -0.117188 16.0625 -0.015625 C 15.65625 0.078125 15.210938 0.125 14.734375 0.125 C 13.742188 0.125 12.972656 -0.0625 12.421875 -0.4375 C 11.867188 -0.820312 11.472656 -1.414062 11.234375 -2.21875 L 10.921875 -2.25 C 10.117188 -0.539062 8.617188 0.3125 6.421875 0.3125 Z M 7.734375 -2.78125 C 8.679688 -2.78125 9.441406 -3.097656 10.015625 -3.734375 C 10.585938 -4.378906 10.875 -5.273438 10.875 -6.421875 L 10.875 -8.09375 L 10.59375 -8.140625 C 10.34375 -7.941406 10.015625 -7.773438 9.609375 -7.640625 C 9.210938 -7.515625 8.632812 -7.382812 7.875 -7.25 C 6.976562 -7.101562 6.332031 -6.847656 5.9375 -6.484375 C 5.550781 -6.117188 5.359375 -5.601562 5.359375 -4.9375 C 5.359375 -4.226562 5.566406 -3.691406 5.984375 -3.328125 C 6.398438 -2.960938 6.984375 -2.78125 7.734375 -2.78125 Z M 7.734375 -2.78125 "/></g></g></g><g fill="#000000" fill-opacity="1"><g transform="translate(97.803422, 27.147795)"><g><path d="M 2.375 0 L 2.375 -16.453125 L 6.390625 -16.453125 L 6.390625 -14.015625 L 6.703125 -13.953125 C 7.097656 -14.867188 7.617188 -15.539062 8.265625 -15.96875 C 8.910156 -16.394531 9.695312 -16.609375 10.625 -16.609375 C 11.5625 -16.609375 12.273438 -16.445312 12.765625 -16.125 L 12.0625 -12.5625 L 11.75 -12.5 C 11.476562 -12.613281 11.21875 -12.691406 10.96875 -12.734375 C 10.71875 -12.785156 10.414062 -12.8125 10.0625 -12.8125 C 8.90625 -12.8125 8.019531 -12.40625 7.40625 -11.59375 C 6.800781 -10.789062 6.5 -9.492188 6.5 -7.703125 L 6.5 0 Z M 2.375 0 "/></g></g></g><g fill="#000000" fill-opacity="1"><g transform="translate(110.712244, 27.147795)"><g/></g></g><g fill="#000000" fill-opacity="1"><g transform="translate(117.920295, 27.147795)"><g><path d="M 6.796875 0 L 2.828125 0 L 2.828125 -21.8125 L 8.46875 -21.8125 L 14 -5.78125 L 14.3125 -5.78125 L 19.796875 -21.8125 L 25.3125 -21.8125 L 25.3125 0 L 21.21875 0 L 21.21875 -14.421875 L 20.84375 -14.46875 L 15.796875 0 L 12.203125 0 L 7.15625 -14.46875 L 6.796875 -14.421875 Z M 6.796875 0 "/></g></g></g><g fill="#000000" fill-opacity="1"><g transform="translate(146.080922, 27.147795)"><g><path d="M 6.421875 0.3125 C 5.359375 0.3125 4.4375 0.117188 3.65625 -0.265625 C 2.882812 -0.648438 2.289062 -1.21875 1.875 -1.96875 C 1.457031 -2.726562 1.25 -3.632812 1.25 -4.6875 C 1.25 -5.65625 1.457031 -6.472656 1.875 -7.140625 C 2.289062 -7.804688 2.9375 -8.347656 3.8125 -8.765625 C 4.695312 -9.191406 5.84375 -9.519531 7.25 -9.75 C 8.238281 -9.90625 8.988281 -10.078125 9.5 -10.265625 C 10.007812 -10.453125 10.351562 -10.664062 10.53125 -10.90625 C 10.707031 -11.144531 10.796875 -11.445312 10.796875 -11.8125 C 10.796875 -12.34375 10.613281 -12.75 10.25 -13.03125 C 9.882812 -13.3125 9.273438 -13.453125 8.421875 -13.453125 C 7.503906 -13.453125 6.628906 -13.242188 5.796875 -12.828125 C 4.972656 -12.421875 4.257812 -11.882812 3.65625 -11.21875 L 3.359375 -11.21875 L 1.625 -13.828125 C 2.457031 -14.753906 3.472656 -15.476562 4.671875 -16 C 5.878906 -16.519531 7.195312 -16.78125 8.625 -16.78125 C 10.800781 -16.78125 12.375 -16.316406 13.34375 -15.390625 C 14.320312 -14.460938 14.8125 -13.148438 14.8125 -11.453125 L 14.8125 -4.296875 C 14.8125 -3.554688 15.132812 -3.1875 15.78125 -3.1875 C 16.03125 -3.1875 16.273438 -3.234375 16.515625 -3.328125 L 16.734375 -3.265625 L 17.03125 -0.390625 C 16.800781 -0.242188 16.476562 -0.117188 16.0625 -0.015625 C 15.65625 0.078125 15.210938 0.125 14.734375 0.125 C 13.742188 0.125 12.972656 -0.0625 12.421875 -0.4375 C 11.867188 -0.820312 11.472656 -1.414062 11.234375 -2.21875 L 10.921875 -2.25 C 10.117188 -0.539062 8.617188 0.3125 6.421875 0.3125 Z M 7.734375 -2.78125 C 8.679688 -2.78125 9.441406 -3.097656 10.015625 -3.734375 C 10.585938 -4.378906 10.875 -5.273438 10.875 -6.421875 L 10.875 -8.09375 L 10.59375 -8.140625 C 10.34375 -7.941406 10.015625 -7.773438 9.609375 -7.640625 C 9.210938 -7.515625 8.632812 -7.382812 7.875 -7.25 C 6.976562 -7.101562 6.332031 -6.847656 5.9375 -6.484375 C 5.550781 -6.117188 5.359375 -5.601562 5.359375 -4.9375 C 5.359375 -4.226562 5.566406 -3.691406 5.984375 -3.328125 C 6.398438 -2.960938 6.984375 -2.78125 7.734375 -2.78125 Z M 7.734375 -2.78125 "/></g></g></g><g fill="#000000" fill-opacity="1"><g transform="translate(163.436945, 27.147795)"><g><path d="M 2.375 0 L 2.375 -16.453125 L 6.34375 -16.453125 L 6.34375 -14.046875 L 6.65625 -13.96875 C 7.675781 -15.84375 9.335938 -16.78125 11.640625 -16.78125 C 13.535156 -16.78125 14.925781 -16.257812 15.8125 -15.21875 C 16.707031 -14.1875 17.15625 -12.679688 17.15625 -10.703125 L 17.15625 0 L 13.03125 0 L 13.03125 -10.1875 C 13.03125 -11.28125 12.8125 -12.066406 12.375 -12.546875 C 11.9375 -13.035156 11.234375 -13.28125 10.265625 -13.28125 C 9.078125 -13.28125 8.148438 -12.894531 7.484375 -12.125 C 6.828125 -11.363281 6.5 -10.160156 6.5 -8.515625 L 6.5 0 Z M 2.375 0 "/></g></g></g><g fill="#000000" fill-opacity="1"><g transform="translate(182.718092, 27.147795)"><g><path d="M 2.375 0 L 2.375 -16.453125 L 6.390625 -16.453125 L 6.390625 -14.015625 L 6.703125 -13.953125 C 7.097656 -14.867188 7.617188 -15.539062 8.265625 -15.96875 C 8.910156 -16.394531 9.695312 -16.609375 10.625 -16.609375 C 11.5625 -16.609375 12.273438 -16.445312 12.765625 -16.125 L 12.0625 -12.5625 L 11.75 -12.5 C 11.476562 -12.613281 11.21875 -12.691406 10.96875 -12.734375 C 10.71875 -12.785156 10.414062 -12.8125 10.0625 -12.8125 C 8.90625 -12.8125 8.019531 -12.40625 7.40625 -11.59375 C 6.800781 -10.789062 6.5 -9.492188 6.5 -7.703125 L 6.5 0 Z M 2.375 0 "/></g></g></g><g fill="#000000" fill-opacity="1"><g transform="translate(195.626914, 27.147795)"><g><path d="M 6.421875 0.3125 C 5.359375 0.3125 4.4375 0.117188 3.65625 -0.265625 C 2.882812 -0.648438 2.289062 -1.21875 1.875 -1.96875 C 1.457031 -2.726562 1.25 -3.632812 1.25 -4.6875 C 1.25 -5.65625 1.457031 -6.472656 1.875 -7.140625 C 2.289062 -7.804688 2.9375 -8.347656 3.8125 -8.765625 C 4.695312 -9.191406 5.84375 -9.519531 7.25 -9.75 C 8.238281 -9.90625 8.988281 -10.078125 9.5 -10.265625 C 10.007812 -10.453125 10.351562 -10.664062 10.53125 -10.90625 C 10.707031 -11.144531 10.796875 -11.445312 10.796875 -11.8125 C 10.796875 -12.34375 10.613281 -12.75 10.25 -13.03125 C 9.882812 -13.3125 9.273438 -13.453125 8.421875 -13.453125 C 7.503906 -13.453125 6.628906 -13.242188 5.796875 -12.828125 C 4.972656 -12.421875 4.257812 -11.882812 3.65625 -11.21875 L 3.359375 -11.21875 L 1.625 -13.828125 C 2.457031 -14.753906 3.472656 -15.476562 4.671875 -16 C 5.878906 -16.519531 7.195312 -16.78125 8.625 -16.78125 C 10.800781 -16.78125 12.375 -16.316406 13.34375 -15.390625 C 14.320312 -14.460938 14.8125 -13.148438 14.8125 -11.453125 L 14.8125 -4.296875 C 14.8125 -3.554688 15.132812 -3.1875 15.78125 -3.1875 C 16.03125 -3.1875 16.273438 -3.234375 16.515625 -3.328125 L 16.734375 -3.265625 L 17.03125 -0.390625 C 16.800781 -0.242188 16.476562 -0.117188 16.0625 -0.015625 C 15.65625 0.078125 15.210938 0.125 14.734375 0.125 C 13.742188 0.125 12.972656 -0.0625 12.421875 -0.4375 C 11.867188 -0.820312 11.472656 -1.414062 11.234375 -2.21875 L 10.921875 -2.25 C 10.117188 -0.539062 8.617188 0.3125 6.421875 0.3125 Z M 7.734375 -2.78125 C 8.679688 -2.78125 9.441406 -3.097656 10.015625 -3.734375 C 10.585938 -4.378906 10.875 -5.273438 10.875 -6.421875 L 10.875 -8.09375 L 10.59375 -8.140625 C 10.34375 -7.941406 10.015625 -7.773438 9.609375 -7.640625 C 9.210938 -7.515625 8.632812 -7.382812 7.875 -7.25 C 6.976562 -7.101562 6.332031 -6.847656 5.9375 -6.484375 C 5.550781 -6.117188 5.359375 -5.601562 5.359375 -4.9375 C 5.359375 -4.226562 5.566406 -3.691406 5.984375 -3.328125 C 6.398438 -2.960938 6.984375 -2.78125 7.734375 -2.78125 Z M 7.734375 -2.78125 "/></g></g></g><g fill="#000000" fill-opacity="1"><g transform="translate(212.982948, 27.147795)"><g><path d="M 4.4375 -18.4375 C 3.6875 -18.4375 3.078125 -18.660156 2.609375 -19.109375 C 2.140625 -19.554688 1.90625 -20.140625 1.90625 -20.859375 C 1.90625 -21.566406 2.140625 -22.144531 2.609375 -22.59375 C 3.078125 -23.050781 3.6875 -23.28125 4.4375 -23.28125 C 4.925781 -23.28125 5.363281 -23.175781 5.75 -22.96875 C 6.144531 -22.757812 6.445312 -22.472656 6.65625 -22.109375 C 6.875 -21.742188 6.984375 -21.328125 6.984375 -20.859375 C 6.984375 -20.390625 6.875 -19.972656 6.65625 -19.609375 C 6.445312 -19.242188 6.144531 -18.957031 5.75 -18.75 C 5.363281 -18.539062 4.925781 -18.4375 4.4375 -18.4375 Z M 1.28125 6.984375 C 0.0703125 6.984375 -0.898438 6.820312 -1.640625 6.5 L -1.140625 3.25 L -0.84375 3.15625 C -0.445312 3.351562 0.015625 3.453125 0.546875 3.453125 C 1.765625 3.453125 2.375 2.734375 2.375 1.296875 L 2.375 -16.453125 L 6.5 -16.453125 L 6.5 1.171875 C 6.5 3.097656 6.054688 4.546875 5.171875 5.515625 C 4.285156 6.492188 2.988281 6.984375 1.28125 6.984375 Z M 1.28125 6.984375 "/></g></g></g></svg>